<svg width="268" height="50" viewBox="0 0 268 50" version="1.1" xmlns="http://www.w3.org/2000/svg" xmlns:xlink="http://www.w3.org/1999/xlink" xml:space="preserve" fill-rule="evenodd" clip-rule="evenodd" stroke-linejoin="round" stroke-miterlimit="2"><path d="M80.312 18.315c4.259 0 7.139 1.25 9.644 3.125l-1.628 3.125c-1.92-1.417-5.052-2.5-8.016-2.5-7.305 0-11.522 5.168-11.522 11.293 0 6.125 4.217 11.292 11.522 11.292 2.964 0 6.096-1.083 8.016-2.5l1.628 3.125c-2.505 1.875-5.385 3.125-9.644 3.125-9.935 0-15.78-6.917-15.78-15.042s5.845-15.043 15.78-15.043M98.388 31.817c.709-3.293 3.005-5.169 5.593-5.169.752 0 1.336.209 1.921.46v3.958c-.668-.375-1.461-.542-2.213-.542-1.377.001-5.301.667-5.301 9.543v7.875h-4.05V27.107h4.05v4.71ZM118.509 44.818c3.841 0 6.93-3.25 6.93-7.251 0-4.042-3.089-7.334-6.93-7.334-3.799 0-6.888 3.292-6.888 7.334 0 4.001 3.089 7.251 6.888 7.251m0-18.169c6.053 0 10.979 4.918 10.979 10.876 0 6.001-4.926 10.876-10.979 10.876-6.012 0-10.938-4.833-10.938-10.876 0-6 4.926-10.876 10.938-10.876M143.722 32.399c-.668-1.875-1.962-2.292-3.256-2.292-1.878 0-3.09 1.167-3.09 2.667 0 1.376 1.253 2.084 2.505 2.5l3.006 1c3.966 1.209 5.01 3.668 5.01 5.876 0 3.958-3.465 6.25-7.514 6.25-3.675 0-7.098-1.875-8.058-5.458l3.59-.875c.502 1.666 2.381 2.875 4.509 2.875 2.088 0 3.591-1.209 3.591-2.834 0-1.416-1.169-2.125-2.63-2.625l-2.797-.958c-3.341-1.001-5.136-2.792-5.136-5.667 0-3.542 2.756-6.209 6.889-6.209 2.922 0 5.802 1.209 6.971 4.959l-3.59.791ZM162.132 32.399c-.668-1.875-1.962-2.292-3.256-2.292-1.879 0-3.09 1.167-3.09 2.667 0 1.376 1.252 2.084 2.504 2.5l3.007 1c3.965 1.209 5.009 3.668 5.009 5.876 0 3.958-3.465 6.25-7.514 6.25-3.674 0-7.097-1.875-8.057-5.458l3.59-.875c.501 1.666 2.38 2.875 4.509 2.875 2.087 0 3.59-1.209 3.59-2.834 0-1.416-1.169-2.125-2.63-2.625l-2.797-.958c-3.34-1.001-5.135-2.792-5.135-5.667 0-3.542 2.756-6.209 6.888-6.209 2.922 0 5.803 1.209 6.972 4.959l-3.59.791ZM182.586 33.567c3.34 0 5.344-2.334 5.344-5.667 0-3.376-2.046-5.709-5.344-5.709h-6.638v11.376h6.638Zm-10.812 14.376V18.774h11.689c5.594 0 8.809 4.25 8.809 9.168 0 4.916-3.256 8.958-8.809 8.958h-7.515v11.043h-4.174ZM199.033 34.775h13.276c-1.128-3.792-4.092-4.583-6.388-4.583-2.463 0-5.51.957-6.888 4.583m16.49 9.751c-2.672 3-6.054 3.875-9.143 3.875-7.264 0-11.772-4.876-11.772-10.793 0-6.083 4.759-10.959 11.229-10.959 5.511 0 10.647 3.543 10.647 11.251h-17.826c-.126 4.042 3.131 6.918 7.765 6.918 2.505 0 4.759-.835 6.847-2.626l2.254 2.334h-.001ZM230.341 30.233c-4.341 0-6.804 3.333-6.804 7.291 0 3.959 2.463 7.293 6.804 7.293 4.217 0 7.097-3.084 7.139-7.293-.042-4.208-2.922-7.291-7.139-7.291m-.501-3.584c2.797 0 5.552.959 7.557 3.792v-3.333h4.049v20.834h-4.049v-3.334c-2.005 2.834-4.76 3.792-7.557 3.792-6.262 0-10.353-4.917-10.353-10.876 0-5.958 4.091-10.875 10.353-10.875M260.732 25.44l2.838 1.667v.458l-7.64 9.126 3.548 5.376c1.212 1.708 1.796 2.791 3.675 2.791.459 0 1.795-.041 2.713-.791l1.378 2.709c-1.628 1.707-4.091 1.624-4.551 1.624-4.008 0-5.343-2.708-6.596-4.417l-4.216-6.751v10.71h-4.049V17.815h4.049v18.042l8.851-10.418v.001Z" fill="#999999" fill-rule="nonzero"/><path d="m.736 49.026 20.12-29.658L55.57 49.026H.736Z" fill="#70bf44" fill-rule="nonzero"/><path d="m18.348 49.026 14.493-19.298L55.57 49.026H18.348Z" fill="#368740" fill-rule="nonzero"/><path d="M55.645 2.357v46.669L32.781 29.728 55.645 2.357Z" fill="#54aa46" fill-rule="nonzero"/><path d="M55.942 1.523 32.485 30.137l23.099-6.945.358-21.67Z" fill="#73c045" fill-rule="nonzero"/><path d="m.734 49.026 19.97-29.165-2.356 29.165H.734Z" fill="#9acd6c" fill-rule="nonzero"/></svg>
